<?xml version="1.0" encoding="utf-8"?>
<!-- Generator: Adobe Illustrator 25.0.1, SVG Export Plug-In . SVG Version: 6.00 Build 0)  -->
<svg version="1.0" id="Layer_1" xmlns="http://www.w3.org/2000/svg" xmlns:xlink="http://www.w3.org/1999/xlink" x="0px" y="0px"
	 viewBox="0 0 118 80.9" style="enable-background:new 0 0 118 80.9;" xml:space="preserve">
<style type="text/css">
	.st0{fill:#FF0000;}
	.st1{fill:#FFFFFF;}
	.st2{fill:#0A0A0A;}
</style>
<path class="st0" d="M43.8,32.2c-0.4-1.5-1.6-2.6-3-3c-2.7-0.8-13.5-0.8-13.5-0.8s-10.7,0-13.3,0.7c-1.5,0.4-2.6,1.5-3,3
	c-0.8,2.7-0.8,8.3-0.8,8.3s0,5.6,0.7,8.2c0.4,1.5,1.6,2.6,3,3c2.7,0.8,13.4,0.8,13.4,0.8s10.7,0,13.4-0.7c1.5-0.4,2.6-1.6,3-3
	c0.7-2.7,0.7-8.2,0.7-8.2S44.5,34.8,43.8,32.2z"/>
<path class="st1" d="M23.9,45.5l8.9-5.1l-8.9-5.1C23.9,35.3,23.9,45.5,23.9,45.5z"/>
<path class="st2" d="M50.4,44.9h3.1c-0.1,2.8,0.4,3.6,1.6,3.6c1.1,0,1.6-0.7,1.6-2.2c0-2.3-1.2-3.4-2.8-4.8
	c-2.6-2.3-3.7-3.6-3.7-6.8c0-3.1,1.4-4.9,5-4.9c3.5,0,4.9,2,4.4,6.2l-3.1,0.2c0.1-2.8-0.2-3.9-1.5-3.9c-1.2,0-1.6,0.8-1.6,2.2
	c0,2.1,0.9,2.8,2.8,4.6c2.4,2.2,3.7,3.5,3.7,6.6c0,3.9-1.5,5.4-5,5.4C51.2,51,49.8,49.1,50.4,44.9z M67.9,50.3
	c-1,0.5-2.3,0.6-3.1,0.6c-2.2,0-2.6-1.1-2.6-3.8v-8.8H61v-2.6h1.4l0.4-4.5h2.4v4.5h2.3v2.6h-2.2v8.3c0,1.4,0.2,1.7,0.7,1.7
	s0.9-0.1,1.3-0.2C67.3,48.1,67.9,50.3,67.9,50.3z M78.6,35.7v15.1h-2.7L75.6,49h-0.1c-0.8,1.5-1.9,2.1-3.2,2.1c-2,0-2.9-1.3-2.9-4
	V35.7h3.4v11.1c0,1.3,0.3,1.9,1,1.9c0.6,0,1.2-0.4,1.4-1v-12C75.2,35.7,78.6,35.7,78.6,35.7z M89.8,29.3v21.4h-2.6l-0.4-2.1h-0.1
	C86.2,50,85,51,83.5,51c-2.4,0-3.2-1.7-3.2-6.6V42c0-4.6,1-6.6,3.3-6.6c1.2,0,2.3,0.6,2.9,1.6h0.1c-0.1-1.3-0.1-2.2-0.1-3.3v-4.4
	H89.8L89.8,29.3z M86.5,47.1v-8.5c-0.3-0.5-0.8-0.8-1.3-0.8c-1.1,0-1.4,1-1.4,4.3V44c0,3.4,0.3,4.4,1.3,4.4
	C85.6,48.5,86.3,48,86.5,47.1z M91.5,31.8c0-1.6,0.6-2.1,1.8-2.1c1.3,0,1.8,0.5,1.8,2.1c0,1.7-0.6,2.1-1.8,2.1S91.5,33.5,91.5,31.8z
	 M91.7,35.7h3.2v15.1h-3.2V35.7z M96.5,44.3v-2.2c0-4.9,1.4-6.7,4.7-6.7s4.6,1.9,4.6,6.7v2.2c0,4.7-1.2,6.7-4.7,6.7
	S96.5,49,96.5,44.3z M102.4,45.5v-4.7c0-2.1-0.3-3.1-1.3-3.1s-1.2,1.1-1.2,3.1v4.7c0,2.2,0.3,3.1,1.2,3.1
	C102.1,48.6,102.4,47.7,102.4,45.5z"/>
</svg>
